<?xml version="1.0" standalone="no"?>
<!DOCTYPE svg PUBLIC "-//W3C//DTD SVG 20010904//EN"
 "http://www.w3.org/TR/2001/REC-SVG-20010904/DTD/svg10.dtd">
<svg version="1.0" xmlns="http://www.w3.org/2000/svg"
 width="265.000000pt" height="265.000000pt" viewBox="0 0 265.000000 265.000000"
 preserveAspectRatio="xMidYMid meet">
<metadata>
Created by potrace 1.14, written by Peter Selinger 2001-2017
</metadata>
<g transform="translate(0.000000,265.000000) scale(0.100000,-0.100000)"
fill="#000000" stroke="none">
<path d="M162 2612 c-38 -12 -93 -63 -113 -106 -18 -39 -19 -88 -18 -1181 0
-847 4 -1148 12 -1172 17 -46 52 -82 100 -104 41 -18 83 -19 1182 -19 1087 0
1142 1 1180 19 48 22 79 54 100 103 13 33 15 170 15 1175 0 1102 -1 1139 -20
1178 -27 57 -41 72 -91 95 -43 19 -65 20 -1184 19 -627 -1 -1150 -4 -1163 -7z"/>
</g>
</svg>
